<?xml version="1.0" ?>
<!-- Uploaded to: SVG Repo, www.svgrepo.com, Generator: SVG Repo Mixer Tools -->
<svg fill="#000000" width="800px" height="800px" viewBox="0 0 32 32" xmlns="http://www.w3.org/2000/svg">
<g data-name="people" id="people-2">
<path d="M9,8.65A3.1,3.1,0,1,0,5.91,5.56,3.1,3.1,0,0,0,9,8.65ZM9,4.46a1.1,1.1,0,1,1-1.09,1.1A1.09,1.09,0,0,1,9,4.46Z"/>
<path d="M11,9.54H7A3.77,3.77,0,0,0,3,13v5a2.7,2.7,0,0,0,2,2.5v6.82a2.11,2.11,0,0,0,2,2.19h4a2.11,2.11,0,0,0,2-2.19V20.53A2.7,2.7,0,0,0,15,18V13A3.77,3.77,0,0,0,11,9.54ZM13,18c0,.31-.43.67-1,.67H11v8.65c0,.11,0,.18,0,.19H7.07a.25.25,0,0,1-.07-.2V18.7H6c-.57,0-1-.36-1-.67V13c0-.82.9-1.49,2-1.49h4c1.1,0,2,.67,2,1.49Z"/>
<path d="M25.31,13.69a1,1,0,0,0-1.41,0l-.9.9-.9-.9a1,1,0,0,0-1.41,1.41l.9.9-.9.9a1,1,0,0,0,0,1.41,1,1,0,0,0,1.41,0l.9-.9.9.9a1,1,0,0,0,1.41,0,1,1,0,0,0,0-1.41l-.9-.9.9-.9A1,1,0,0,0,25.31,13.69Z"/>
<path d="M23,10a6,6,0,1,0,6,6A6,6,0,0,0,23,10Zm0,10a4,4,0,1,1,4-4A4,4,0,0,1,23,20Z"/>
</g>
</svg>