<svg id="visual" viewBox="0 0 900 600" width="900" height="600" xmlns="http://www.w3.org/2000/svg" xmlns:xlink="http://www.w3.org/1999/xlink" version="1.1"><rect x="0" y="0" width="900" height="600" fill="#3E3A39"></rect><path d="M0 432L10.7 439.8C21.3 447.7 42.7 463.3 64.2 472.7C85.7 482 107.3 485 128.8 474.7C150.3 464.3 171.7 440.7 193 434.5C214.3 428.3 235.7 439.7 257 438.2C278.3 436.7 299.7 422.3 321.2 417.8C342.7 413.3 364.3 418.7 385.8 424.8C407.3 431 428.7 438 450 448.7C471.3 459.3 492.7 473.7 514.2 467C535.7 460.3 557.3 432.7 578.8 420.5C600.3 408.3 621.7 411.7 643 422.5C664.3 433.3 685.7 451.7 707 454.3C728.3 457 749.7 444 771.2 443.7C792.7 443.3 814.3 455.7 835.8 453.3C857.3 451 878.7 434 889.3 425.5L900 417L900 601L889.3 601C878.7 601 857.3 601 835.8 601C814.3 601 792.7 601 771.2 601C749.7 601 728.3 601 707 601C685.7 601 664.3 601 643 601C621.7 601 600.3 601 578.8 601C557.3 601 535.7 601 514.2 601C492.7 601 471.3 601 450 601C428.7 601 407.3 601 385.8 601C364.3 601 342.7 601 321.2 601C299.7 601 278.3 601 257 601C235.7 601 214.3 601 193 601C171.7 601 150.3 601 128.8 601C107.3 601 85.7 601 64.2 601C42.7 601 21.3 601 10.7 601L0 601Z" fill="#F1E1CC" stroke-linecap="round" stroke-linejoin="miter"></path></svg>